<svg width="90" height="90" viewBox="0 0 90 90" fill="none" xmlns="http://www.w3.org/2000/svg">
<circle cx="45" cy="45" r="45" fill="url(#paint0_linear_17_144)"/>
<path d="M90 45C90 37.1008 87.9207 29.3409 83.9711 22.5C80.0216 15.6591 74.3409 9.97843 67.5 6.02886C60.6591 2.07928 52.8991 -3.45283e-07 45 0C37.1008 3.45283e-07 29.3409 2.07928 22.5 6.02886L45 45H90Z" fill="#3ECBDA"/>
<path d="M46.1824 21.24C45.8089 21.0799 45.4068 20.9973 45.0004 20.9973C44.594 20.9973 44.1919 21.0799 43.8184 21.24L22.8184 30.24C22.2772 30.4705 21.8158 30.8551 21.4914 31.3458C21.1671 31.8365 20.9941 32.4118 20.9941 33C20.9941 33.5882 21.1671 34.1635 21.4914 34.6542C21.8158 35.1449 22.2772 35.5294 22.8184 35.76L30.7504 39.153C31.0448 38.82 31.4096 38.5566 31.8184 38.382L43.8184 33.24C44.1815 33.0781 44.5732 32.9901 44.9706 32.9809C45.3681 32.9718 45.7634 33.0417 46.1336 33.1867C46.5038 33.3317 46.8415 33.5488 47.127 33.8254C47.4126 34.102 47.6403 34.4326 47.797 34.798C47.9536 35.1634 48.0361 35.5563 48.0396 35.9539C48.043 36.3514 47.9675 36.7457 47.8172 37.1138C47.667 37.4819 47.4451 37.8164 47.1645 38.098C46.8838 38.3796 46.55 38.6026 46.1824 38.754L38.0014 42.264L43.8214 44.757C44.1945 44.9167 44.5961 44.999 45.0019 44.999C45.4077 44.999 45.8093 44.9167 46.1824 44.757L67.1824 35.757C67.7218 35.5256 68.1814 35.141 68.5044 34.651C68.8274 34.1609 68.9996 33.5869 68.9996 33C68.9996 32.4131 68.8274 31.839 68.5044 31.349C68.1814 30.8589 67.7218 30.4744 67.1824 30.243L46.1824 21.243V21.24ZM24.9304 43.191L30.0004 45.36V57.666C28.9616 57.4298 27.9098 57.2555 26.8504 57.144C26.1668 57.0721 25.5286 56.7678 25.0426 56.2817C24.5566 55.7957 24.2522 55.1576 24.1804 54.474C23.7859 50.6967 24.0395 46.8798 24.9304 43.188V43.191ZM42.9004 64.719C40.8724 62.7291 38.5439 61.0709 36.0004 59.805V47.934L41.4544 50.274C42.5749 50.7543 43.7813 51.002 45.0004 51.002C46.2195 51.002 47.4259 50.7543 48.5464 50.274L65.0704 43.191C65.9665 46.882 66.2202 50.6998 65.8204 54.477C65.7485 55.1606 65.4442 55.7987 64.9581 56.2847C64.4721 56.7708 63.834 57.0751 63.1504 57.147C57.098 57.7831 51.44 60.4524 47.1004 64.719C46.5396 65.2687 45.7856 65.5766 45.0004 65.5766C44.2151 65.5766 43.4612 65.2687 42.9004 64.719V64.719ZM33.0004 69C33.796 69 34.5591 68.6839 35.1217 68.1213C35.6843 67.5587 36.0004 66.7956 36.0004 66V59.805C34.0924 58.8571 32.0782 58.14 30.0004 57.669V66C30.0004 66.7956 30.3165 67.5587 30.8791 68.1213C31.4417 68.6839 32.2047 69 33.0004 69Z" fill="white"/>
<defs>
<linearGradient id="paint0_linear_17_144" x1="3.06716e-06" y1="-12.5" x2="90" y2="110.5" gradientUnits="userSpaceOnUse">
<stop offset="0.203727" stop-color="#3ECBDA"/>
<stop offset="1" stop-color="#3CACB8"/>
</linearGradient>
</defs>
</svg>
