<svg width="90" height="90" viewBox="0 0 90 90" fill="none" xmlns="http://www.w3.org/2000/svg">
<circle cx="45" cy="45" r="45" fill="url(#paint0_linear_17_157)"/>
<path d="M90 45C90 37.1008 87.9207 29.3409 83.9711 22.5C80.0216 15.6591 74.3409 9.97843 67.5 6.02886C60.6591 2.07928 52.8991 -3.45283e-07 45 0C37.1008 3.45283e-07 29.3409 2.07928 22.5 6.02886L45 45H90Z" fill="#FFCD50"/>
<path d="M54.3927 52.9983L52.5325 50.4202V47.2383C53.2154 46.213 53.8159 44.9459 54.3594 43.4011C54.4497 43.4165 54.5394 43.4245 54.6286 43.4245C55.0298 43.4245 55.4001 43.27 55.6873 43.0094C55.8436 42.9626 55.9972 42.9056 56.1456 42.8377C57.3544 42.288 58.2738 41.0626 58.4533 39.5469C58.6186 38.1452 58.1051 36.8394 57.1981 35.9994C57.6553 31.693 56.8211 28.1409 54.7493 25.6712C52.7622 23.3036 49.6593 22 45.9887 22C42.3683 22 39.2745 23.3127 37.2744 25.6957C35.1936 28.1763 34.3515 31.7198 34.8019 35.9994C33.8955 36.8388 33.3802 38.1452 33.5462 39.5475C33.7245 41.0626 34.6444 42.2886 35.8533 42.8383C35.943 42.8788 36.0367 42.9085 36.1293 42.9415C36.6914 44.2269 37.6243 45.3229 38.8371 46.1668C39.0397 46.5466 39.2479 46.9098 39.4664 47.2383V50.4202L37.6056 52.9983C28.893 54.9035 25 59.0936 25 66.5723V67H67V66.5723C67 59.0936 63.1065 54.9035 54.3927 52.9983ZM43.4891 53.8058L43.0913 53.3781L42.6962 52.9533L40.3135 50.3906V48.3326C41.7825 49.9601 43.6077 50.6888 45.9994 50.6888C48.3912 50.6888 50.2175 49.9606 51.686 48.3326V50.3906L49.2998 52.9567L48.9082 53.3781L48.5109 53.8058L46 56.5053L43.4891 53.8058ZM53.317 52.959L53.6195 53.3781L53.6641 53.4397L53.5218 53.8058L50.9235 60.4725L47.0943 57.4513L46.6406 57.0932C46.6253 57.0812 47.0847 56.5868 47.0847 56.5868L49.6712 53.8052L50.0685 53.3775L50.4596 52.9567L51.5754 51.7569L52.0675 51.2277C52.0765 51.2397 52.4321 51.7335 52.4321 51.7335L53.317 52.959ZM36.0587 34.8903C35.8956 34.9428 35.7494 35.0249 35.6151 35.1218C35.3662 31.446 36.1569 28.4135 37.951 26.2751C39.7796 24.0956 42.6336 22.8953 46.0107 22.8953C49.3947 22.8953 52.2577 24.0865 54.0727 26.2506C55.8589 28.3804 56.6433 31.421 56.386 35.1224C56.2517 35.0249 56.1049 34.9428 55.9418 34.8903L55.8504 34.8606C56.2432 28.2076 53.0698 23.5026 46 23.5026C38.9308 23.5026 35.7568 28.2076 36.1507 34.8606L36.0587 34.8903ZM37.385 43.4183C37.4691 43.4177 37.5537 43.4165 37.6395 43.4017C37.7304 43.6595 37.8252 43.899 37.9194 44.1419C37.7247 43.9109 37.5447 43.6703 37.385 43.4183ZM39.4393 45.4974C39.042 44.7127 38.6627 43.7969 38.3021 42.722L38.144 42.2487L37.7055 42.4802C37.6502 42.5093 37.6073 42.5207 37.5633 42.5344C37.5842 42.4397 37.5938 42.3399 37.5814 42.2373L37.056 37.7905L38.1034 39.7231V38.0511C38.1034 35.9184 38.1034 33.7133 38.718 32.0933C39.3823 30.3409 40.6854 29.5243 42.8198 29.5243C43.7019 29.5243 44.7381 29.6697 45.8995 29.9566L46 29.9811L46.1005 29.9566C47.2619 29.6697 48.2981 29.5243 49.1802 29.5243C53.896 29.5243 53.896 33.6671 53.896 38.0529V39.7231L54.944 37.7917L54.4186 42.2373C54.4068 42.3399 54.4158 42.4391 54.4367 42.5344C54.3921 42.5213 54.3492 42.5087 54.295 42.4802L53.8565 42.2475L53.6979 42.722C53.3294 43.8214 52.9411 44.7572 52.5331 45.5538C52.3942 45.8252 52.2532 46.0807 52.1098 46.3202C51.971 46.5517 51.8299 46.769 51.6865 46.9731C50.0798 49.2592 48.1965 49.834 46 49.834C43.821 49.834 41.9501 49.2661 40.3518 47.0239C41.3519 47.4778 42.4716 47.7949 43.681 47.9482C43.8436 48.3634 44.242 48.6571 44.7104 48.6571H46.1129C46.7252 48.6571 47.2218 48.1552 47.2218 47.5365C47.2218 46.9173 46.7252 46.416 46.1129 46.416H44.7104C44.2725 46.416 43.8972 46.6743 43.7166 47.0467C42.0726 46.8266 40.6131 46.2894 39.4393 45.4974ZM38.3794 53.3781L38.6881 52.951L39.5668 51.7341L39.9229 51.2402C39.932 51.2283 40.4241 51.7575 40.4241 51.7575L41.5347 52.9521L41.9304 53.3781L42.3282 53.8058L44.9142 56.5874L45.3736 57.0812C45.3583 57.0932 44.9046 57.4513 44.9046 57.4513L41.0754 60.4725L38.477 53.8058L38.3348 53.4397L38.3794 53.3781Z" fill="white"/>
<defs>
<linearGradient id="paint0_linear_17_157" x1="10.125" y1="9.53721e-07" x2="99" y2="131.5" gradientUnits="userSpaceOnUse">
<stop stop-color="#FFCD50"/>
<stop offset="1" stop-color="#FF960F"/>
</linearGradient>
</defs>
</svg>
